<?xml version="1.0" encoding="utf-8"?>
<!-- Generator: Adobe Illustrator 24.0.2, SVG Export Plug-In . SVG Version: 6.00 Build 0)  -->
<svg version="1.1" id="Layer_1" xmlns="http://www.w3.org/2000/svg" xmlns:xlink="http://www.w3.org/1999/xlink" x="0px" y="0px"
	 viewBox="0 0 1382 1037.2" style="enable-background:new 0 0 1382 1037.2;" xml:space="preserve">
<style type="text/css">
	.st0{fill:#FFFFFF;}
	.st1{fill:#010101;}
	.st2{fill:#007F81;}
</style>
<title>1</title>
<g id="Layer_3">
	<path class="st0" d="M1153.6,413.7c-0.3,0.4-0.6,0.8-0.9,1.2h-0.2l-63.8,9.1c0,0-1.2-1-3.6-2.8l0,0c-1.3-1-3-2.2-5.1-3.7
		C1104.1,415.8,1128.8,414.4,1153.6,413.7z"/>
	<path d="M703.7,58.4h-34.2c-4.2,0-7.6,2.4-7.6,6.6l0,0c0,2.8,1.5,5.3,3.9,6.6c7.8,4.3,24.3,13.6,38.6,17.3c2.6,0.7,5.2-0.8,5.8-3.4
		c0.1-0.4,0.2-0.8,0.2-1.2l0,0c0-1.9-1.1-3.7-2.9-4.4c-8.4-3.6-16.9-6.7-25.7-9.3c-0.9-0.2-1.5-1-1.6-1.9l0,0
		c-0.1-1.2,0.8-2.2,2-2.3c0,0,0.1,0,0.1,0h21.2c2.4,0,4.4-1.9,4.5-4.3l0,0C708.4,59.6,706.3,58.4,703.7,58.4z"/>
	<path d="M744.1,59.9h43.4V67c0,3-1.8,5.7-4.6,6.9l-33.8,14.3c-2.3,1-5.1-0.1-6.1-2.4c-0.2-0.5-0.3-1-0.4-1.6l0,0
		c-0.1-2,1.1-3.9,3-4.6l25.2-9.3c0.8-0.3,1.3-1.1,1.3-2l0,0c-0.1-1-0.9-1.8-1.9-1.8l-26.1,0.2c-1.9,0-3.4-1.5-3.4-3.3c0,0,0,0,0-0.1
		l0,0C740.7,61.4,742.2,59.9,744.1,59.9C744.1,59.9,744.1,59.9,744.1,59.9z"/>
	<path d="M744.7,107.5c0.2-1.8,1.7-3.3,3.5-3.3c8.5-0.3,30.8-0.6,30.8,6.2c0,8.3-25,23-34,21c0,0-7.9-0.8,20.3-17.9
		c0.2-0.1,0.2-0.3,0.1-0.5c-0.1-0.1-0.2-0.2-0.3-0.2C760.3,112.8,745.2,112.6,744.7,107.5L744.7,107.5z"/>
	<path d="M894.7,142.3c0,0,19.7-22.7,74.7-13c0,0,4.7-36,41.7-30.3c0,0-30.3,13-35.3,47C975.7,146,929.7,133.7,894.7,142.3z"/>
	<path d="M509.2,131.2c0,0-33.9-21.4-85.7-0.5c0,0-21-28.8-54-24.1c0,0,32.2,9.9,48,42.9C417.5,149.5,440.7,124.2,509.2,131.2z"/>
	<path class="st1" d="M1381.9,366.1c0,0-14-17-44.7-15c0,0-6-18.7-24.1-21.8c0,0,15.1,10.7,17.7,30.7
		C1330.8,360,1347.3,350.7,1381.9,366.1z"/>
</g>
<g id="Layer_2_1_">
	<path class="st2" d="M451.3,953.3c-38.7-12-132.7-22-237.3,4s-214-4-214-4c112,50,242.7,35.3,312.7,20.7S451.3,953.3,451.3,953.3z"
		/>
	<path class="st2" d="M888.5,921.7c50.1-0.4,116,16.6,128.4,19.9c1.6,0.4,3.3-0.5,3.8-2.2c0.2-0.9,0.1-1.8-0.4-2.6
		c-16.6-24.1-23.1-23.1-119.8-38.7c-99-16-106,14.5-110.5,32.2s-10.5,15.8-98.5,4.3s-127.5,3-145.5,11s-61,25-101,31
		S306.7,1002,306.7,1002c116.2,18.8,196.3-8.8,249.3-25.3s146-15,219,4S825,922.2,888.5,921.7z"/>
	<path class="st2" d="M878,994.7c-36,25.3-194.7,21.3-194.7,21.3c42.7,20,142,22.7,172.7,20.7s36.7,1.3,65.3-32.7
		c28.7-34,107.3-38.7,107.3-38.7C869.3,944.7,914,969.3,878,994.7z"/>
	<path class="st2" d="M1204,990.7c-74.5,22-65.9-37.9-114.4-39.7c-1.2,0-2.1,0.9-2.2,2.1c0,0.5,0.1,0.9,0.4,1.3
		c4.6,6.2,14.4,19.5,20.8,29c8.7,12.7,17.3,39.3,78.7,32s48.7-17.8,194.7-17.9C1382,997.4,1286.9,966.2,1204,990.7z"/>
	<path class="st2" d="M1158,943.7c36,27.2,55.5,30.5,97.5,24s73-8,73-8c-27.5-24-108.5-8.7-136.5-45.5c-17.6-23.2-40-22.5-40-22.5
		c-63.8,0-81.9,41-84.9,49c-0.3,0.8-0.3,1.8,0.1,2.6c0.6,1.3,2,2.1,3.4,1.9l3.8-0.5C1114.8,938.8,1131.5,923.7,1158,943.7z"/>
	
		<ellipse transform="matrix(0.7071 -0.7071 0.7071 0.7071 -523.5941 439.6492)" class="st1" cx="268.9" cy="851.9" rx="10.7" ry="4.3"/>
	<path class="st1" d="M289.5,839.5v-6c0-2,0.8-3.9,2.2-5.3l12.6-12.8c0.6-0.6,1.5-0.6,2.1,0c0.1,0.1,0.3,0.3,0.3,0.5
		c1.2,3.2,1.3,6.7,0,9.9c-0.5,1.2-1.2,2.3-2.2,3.1l-13.4,11.4c-0.4,0.4-1.1,0.3-1.4-0.1C289.6,840,289.5,839.7,289.5,839.5z"/>
	<path class="st1" d="M324.8,814.4c-1.4-4.7-1.4-9.7-0.1-14.4c0.8-2.8,2.3-5.4,4.4-7.4c4.5-4.3,14.1-13.5,21.8-19.8
		c0.7-0.6,1.7-0.5,2.3,0.2c0.1,0.1,0.1,0.2,0.2,0.3c3.1,5.1,3.7,11.4,1.6,17.1c0,0-17.2,18.4-29.5,24.4
		C325.3,814.8,325,814.8,324.8,814.4C324.8,814.5,324.8,814.5,324.8,814.4z"/>
	<path class="st1" d="M415.3,747c0,0-29,21.4-44.1,32c-0.6,0.5-1.5,0.3-1.9-0.3c-0.1-0.2-0.2-0.4-0.3-0.7
		c-0.8-8.7,0.2-40.9,39.5-60.9c1.8-0.9,4.1-0.2,5,1.6c0.2,0.5,0.4,1,0.4,1.5L415.3,747z"/>
	<path class="st1" d="M491.3,645.7l1.8,43.3l-57.4,42.2c-0.6,0.4-1.4,0.3-1.8-0.3c-0.2-0.2-0.3-0.5-0.3-0.8v-20.6
		c0-9.5,3.8-18.7,10.6-25.4C455.3,672.9,473.9,655.8,491.3,645.7z"/>
	<path class="st1" d="M404,626.4c-0.2-1.2-1.4-2-2.6-1.8c-0.6,0.1-1.1,0.4-1.5,0.9l-9.9,14.3c-1,1.5-1.6,3.3-1.6,5.1v7.7
		c0,0,14-14.9,15.4-20.1C404.3,630.5,404.4,628.4,404,626.4z"/>
	<path class="st1" d="M417.5,618.1l13.1-13.8c1.9-2,2.9-4.6,2.9-7.3v-11.4c0-0.5-0.4-0.8-0.8-0.8c-0.2,0-0.5,0.1-0.6,0.3l-7,7.6
		c-5.4,5.9-8.4,13.6-8.4,21.6v3.6c0,0.3,0.2,0.5,0.5,0.5C417.3,618.3,417.4,618.2,417.5,618.1z"/>
	<path class="st1" d="M458.8,571.3c5.9-5.8,9.2-13.7,9.2-22v-8.9c0-0.6-0.5-1-1-1c-0.3,0-0.6,0.1-0.7,0.4l-15.1,20.7
		c-3.3,4.5-4.1,10.3-2,15.5c0.2,0.6,0.5,1.2,0.9,1.8C453.3,576,456.2,573.9,458.8,571.3z"/>
	<path class="st1" d="M1126.9,414.7c-0.3,0-0.7,0-1.1,0c-0.1,0-0.2,0-0.3,0c-1.3,0.1-2.5,0.1-3.8,0.2c4.4-0.2,8.9-0.4,13.3-0.6
		C1132.3,414.4,1129.6,414.6,1126.9,414.7z M1110.9,415.5c-2.3,0.1-4.7,0.3-7,0.4c-1,0.1-2,0.1-3,0.2c3.9-0.2,7.8-0.5,11.6-0.7
		c-0.3,0-0.7,0-1,0.1C1111.3,415.5,1111.2,415.5,1110.9,415.5z M1121.7,414.9c-3.1,0.2-6.1,0.3-9.2,0.5c1.7-0.1,3.4-0.2,5.2-0.3
		C1119,415.1,1120.4,415,1121.7,414.9z M1143.1,414c1,0,2-0.1,3-0.1c-0.6,0-1.2,0-1.8,0.1C1143.9,414,1143.5,414,1143.1,414z
		 M1110.9,415.5c-2.3,0.1-4.7,0.3-7,0.4c-1,0.1-2,0.1-3,0.2c3.9-0.2,7.8-0.5,11.6-0.7c-0.3,0-0.7,0-1,0.1
		C1111.3,415.5,1111.2,415.5,1110.9,415.5z M1126.9,414.7c-0.3,0-0.7,0-1.1,0c-0.1,0-0.2,0-0.3,0c-1.3,0.1-2.5,0.1-3.8,0.2
		c4.4-0.2,8.9-0.4,13.3-0.6C1132.3,414.4,1129.6,414.6,1126.9,414.7z M1117.7,415.1c1.3-0.1,2.7-0.1,4-0.2c-3.1,0.2-6.1,0.3-9.2,0.5
		C1114.3,415.3,1116,415.2,1117.7,415.1z M1278,417.7c-34.6-3.8-72-4.9-109.8-4.3c-6.3-2.1-7.5-10.7-7.6-15.9c0-2.4-1.7-4.4-4.1-4.9
		c-31.5-6.5-69.6-22.2-86.3-30c-5.9-2.8-9.8-8.5-10.3-15l-3.3-48.2c-8.6-71.8-142.8-90.5-181.6-94.4c-7.1-0.8-13.8-3.5-19.4-7.9
		c-4.5-3.7-8.5-8-11.7-12.8c-3.8-5.2-8.5-9.6-14-13c-7.5-4.1-54-5.6-75.9-6.5c-6.6-0.3-12-5.5-12.6-12.1
		C737.6,108.2,729.8,23.2,728,3.9c-0.1-2.4-2.2-4.2-4.6-4.1c-2.4,0.1-4.2,2.2-4.1,4.5c0,6.4,0.1,12.8,0.1,19
		c0,43.9-0.9,82.1-1.7,107.5c-1.5-2.4-8-10.3-28.1-17.9c-0.2-0.1-0.3-0.3-0.2-0.5c0-0.2,0.2-0.3,0.4-0.3c6-0.1,11.9-0.6,17.8-1.5
		c1.8-0.3,3.1-1.9,2.9-3.8c-0.2-1.7-1.6-2.9-3.3-2.9h-28.8c-0.6,0-1.1,0.4-1.1,1c-0.4,4.1,0.9,19.7,40.5,26.5
		c-0.2,6.9-0.4,12.8-0.6,17.6c-0.2,4.8-0.3,8.5-0.4,11c-0.1,2-1.6,3.8-3.6,4.1c-16.3,2.8-32.9,8.5-48.4,15.4
		c0.1-5.5,0.3-23.1,0.3-36.8c0-8.2-0.1-14.9-0.3-16.8c-0.5-4-3.7-7.8-5.5-9.6c-0.3-0.3-0.8-0.3-1,0c-0.1,0.1-0.2,0.3-0.2,0.5
		l-0.7,22.9h-30.6c-1.4,0-2.5,1.1-2.5,2.5s1.1,2.5,2.5,2.5h30.4l-0.7,21.9h-21.7c-1.1,0-2,0.9-2,2c0,1.1,0.9,2,2,2h21.6l-0.4,13.1
		c-12.5,6.1-24.4,13.3-35.6,21.4c-9.7,7.2-16.9,14.1-20.3,19.5C588.7,243,576.8,249,576.8,249c-33,15.7-65,38.9-88.7,58.1
		c-12,9.7-21.9,18.5-28.7,24.7c-0.1-7.2-0.4-18-0.8-30s-0.8-25.1-1.1-36.6H479c1.9,0,3.5-1.6,3.5-3.5c0-1.9-1.6-3.5-3.5-3.5h-21.7
		c-0.3-9.8-0.6-17.8-0.7-22c0-2-1.6-3.6-3.6-3.6s-3.6,1.6-3.6,3.6c-0.1,5.8-0.4,13.5-0.8,22h-28.1c-1.9,0-3.5,1.6-3.5,3.5
		c0,1.9,1.6,3.5,3.5,3.5h27.8c-0.3,5.7-0.5,11.6-0.8,17.5H428c-1.1,0-2,0.9-2,2c0,1.1,0.9,2,2,2h19.3c-1.4,28-2.8,55-2.8,55H380v90
		c9.4,0.2,18.3,0.4,26.8,0.4c2.9,5.6,4,15-6.3,28.5c-18,23.4-14,52.1-13,63.6s-5.5,33.5-30.5,83c-20.5,40.5-17.8,51.5-16.2,54.2
		c0.2,0.3,0.5,0.3,0.8,0.1c0.1,0,0.2-0.1,0.2-0.2c8.5-20.3,37.1-77.2,55.5-112c18.7-35.3,29.7-62,56-63c22.5-0.9,9.9,9.3,9.9,9.3
		C396.7,564.3,349.5,681,348,684.6c1.3-2.5,2.7-5,4-7.4c3-4.6,5.9-7.2,8-8.7c2.1-1.5,3.5-1.8,3.5-1.8c0.7,5.4,1.8,8.3,2.4,9.6
		c0.3,0.6,1,0.9,1.6,0.7c5.9-1.9,9.4-17.4,10.3-21.4c0.2-0.7-0.2-1.3-0.9-1.5c-0.7-0.2-1.3,0.2-1.5,0.9c-0.7,2.3-2.3,6.4-5.4,6.4
		c-4.6,0-0.1-15.3,0-15.7c25-41.3,48.5-70.6,67.2-90.4c18.7-19.9,32.5-30.4,38.1-34.3c1-0.7,2.5-0.5,3.2,0.6
		c0.2,0.2,0.3,0.5,0.4,0.8c4.8,19.6,3.5,57.3,2.6,73.3c-44.7,31-87.5,67.4-133.5,111c-133.1,126.4-128,222-128,222
		c91-260,421.5-394.5,421.5-394.5c285-111,582-90,613.5-88s13,29.5,13,29.5c-21,43-72,125-133,241c-51.5,97.9-83.4,183.3-92.1,207.6
		c-1.2,3.7,0.7,7.6,4.4,8.9c2.8,0.9,5.8,0,7.7-2.2c34.5-44.3,72.5-103.1,123-169.2c52-68,153.5-198,153.5-198
		c8.6-12.8,17-29.7,18.5-41.6C1358.5,450.7,1338,424.2,1278,417.7z M656.7,202.8c12.5-9.3,14.4-1.7,14.6-0.2c0,0.1,0.1,0.1,0.1,0.1
		c0,0,0,0,0.1,0c36.2-36.1,79.2-24.7,121.2-24.7s47.4,25,47.4,25c-5.2-0.1-10.4-0.2-15.5-0.2c-88.9,0-161.5,17.1-201.8,29.3
		C608,227.2,643,213,656.7,202.8z M468.9,342.6c0-0.2,0.1-0.3,0.2-0.4c10.2-13.1,93.1-111.9,291.1-122.6
		c192.5-10.3,274.5,32.4,279.5,73l-3.3,2.3c0,0-109.1-43.9-292.3-32.3c-187.4,11.8-239.3,92.6-274.3,81.6
		C469,344.1,468.7,343.3,468.9,342.6z M999,292.9v36.8c0,1.7-1.1,3-2.3,2.6l-18-6.5c-1.3-0.5-2.3-2.3-2.3-4.3v-35.7
		c0-2,1.3-3.6,2.7-3.1l17.3,5.5C997.9,288.6,999,290.6,999,292.9z M898,273.2v27.3c0,3.6-2.9,6.6-6.6,6.6h-15.1
		c-3.1,0-5.6-2.5-5.6-5.6v-28.3c0-3.2,2.6-5.9,5.8-5.9h15.6C895.4,267.3,898,270,898,273.2z M788.5,271.2v27.8c0,3.7-3,6.8-6.8,6.8
		h-15.5c-3.2,0-5.7-2.6-5.8-5.7c0,0,0,0,0,0v-28.8c0-3.3,2.7-6,6-6h16C785.8,265.2,788.5,267.9,788.5,271.2z M666.3,282.5v31.1
		c0,1.8-1.2,3.3-2.9,3.7l-22.6,5.7c-1.2,0.3-2.5-0.5-2.8-1.7c0-0.2-0.1-0.4-0.1-0.6v-32c0-2,1.4-3.8,3.4-4.2l21.6-4.8
		c1.5-0.3,3,0.6,3.3,2.1C666.2,282.1,666.3,282.3,666.3,282.5z M654.4,505.2c-0.3-3-0.9-6-1.8-8.9c-1.1-3.8-4.5-6.4-8.4-6.5
		c-36.1-1.4-75.8,1.8-92.4,3.4c-4.6,0.4-8.1,4.4-7.9,9.1c0.2,5.6,0.6,12.1,0.9,16c0.1,1.9,1.8,3.4,3.7,3.4
		c40.2-1.5,59.6-1.6,68.8-1.3c-11.5,5-22.7,10.1-33.6,15.4c-10.9,5.3-21.5,10.8-32,16.5c-10,3.3-24.2,4.4-33.8,4.7
		c-5.8,0.2-10.7-4.3-11-10.1c0-0.1,0-0.3,0-0.4c-0.1-14.8,1-31.9,1.8-42c0.4-5.5,1.2-11,2.3-16.3c0.4-1.8,1.8-3.2,3.7-3.4
		c17.8-2.2,45.5-7.3,89.3-18.3c46.4-11.6,91-17.6,91-17.6c92-7.1,133.6-2.4,149.2,0.6C770.5,466.4,708.7,484.4,654.4,505.2z
		 M976.1,428.2L976.1,428.2c-17.9,2.3-34.6,4.6-49.5,6.9c-38.5,0.3-89.5-4.2-146.6-5.3c-79-1.6-171.7,17.7-204,27
		s-91.3,16-115.3,17.7c-24,1.7-25.3-7-27-23c-0.6-6.6,0-13.2,1.7-19.6c150.1-3.5,155.4-39.4,304-37c204,3.3,237,26.9,237,26.9
		C980.2,423.4,978.6,426,976.1,428.2z M613.3,399.3v-27.2c0-1.7,1.1-3.2,2.7-3.6l17.5-4c1.2-0.2,2.4,0.6,2.7,1.8c0,0.2,0,0.3,0,0.5
		v26.4c0,1.5-0.9,2.8-2.3,3.2l-18.4,4.9c-1,0.2-2-0.4-2.3-1.4C613.3,399.7,613.2,399.5,613.3,399.3z M730,383.7V354
		c0-3.4,2.6-6.1,6-6.2h16c3.4,0,6,2.8,6,6.2v28.6c0.1,3.8-2.9,6.9-6.7,7h-15.5C732.5,389.6,730,387,730,383.7z M858,389.5v-34.9
		c0-2.4,1.9-4.3,4.3-4.3c0.2,0,0.4,0,0.6,0l17.6,2.2c2.2,0.3,3.9,2.1,3.8,4.4v35.8c0,2.8-2.3,5.1-5,5.1c-0.3,0-0.6,0-1-0.1
		l-15.9-2.8C859.8,394.4,858,392.1,858,389.5z M998.3,420.6l-17.3-6.2c-1.3-0.5-2.2-2.1-2.2-4V377c0-1.9,1.3-3.3,2.6-2.9l16.5,5.1
		c1.5,0.5,2.6,2.4,2.6,4.6l0,34.4C1000.5,419.8,999.4,421,998.3,420.6z M1153.6,413.7c-2.5,0.1-5,0.2-7.4,0.2c-0.6,0-1.2,0-1.8,0.1
		c-0.4,0-0.8,0-1.2,0.1c-1.5,0-3.1,0.1-4.6,0.2c-1.2,0-2.3,0.1-3.5,0.1c-2.7,0.1-5.4,0.2-8.1,0.4c-0.3,0-0.7,0-1.1,0
		c-0.1,0-0.2,0-0.3,0c-1.3,0.1-2.5,0.1-3.8,0.2c-3.1,0.2-6.1,0.3-9.2,0.5c-0.3,0-0.7,0-1,0.1c-0.2,0-0.4,0-0.6,0
		c-2.3,0.1-4.7,0.3-7,0.4c-1,0.1-2,0.1-3,0.2c-1.6,0.1-3.1,0.2-4.7,0.3c-0.1,0-0.1,0-0.2,0c-0.3,0-0.6,0-0.9,0.1
		c-0.8,0.1-1.7,0.1-2.5,0.2c-0.8,0.1-1.6,0.1-2.4,0.2c-0.3,0-0.7,0.1-1,0.1c-1.1,0.1-2.2,0.2-3.3,0.2c-2,0.1-3.9,0.3-5.9,0.4h0
		c-27-18.8-116.2-72.4-260.7-76.2c0,0-120.5-8.5-211.6,26.8c-25.5,9.9-52.5,15.1-79.9,15.3l-105.1,0.7c-3.7,0-6.8-3-6.8-6.7V358
		h92.2c26.8,0,53.4-4.7,78.7-13.7c40.7-14.6,116.1-35.6,213.1-35.6c148.7,0,186,24.7,256.7,56.7c0,0,31.3,17.4,84.3,32.7
		C1141,398,1160.3,404.2,1153.6,413.7z M1322.7,512c-2.7,28.7-39.3,79.9-105.3,161.9c-54.8,68.1-79.2,97.1-90.9,106.5
		c-0.8,0.6-1.9,0.5-2.5-0.2c-0.5-0.6-0.5-1.3-0.2-2c14.4-26.8,76.3-140.8,110.3-194.2c32.4-50.9,63-99,72-113.2
		c1.1-1.7,3.3-2.2,5-1.2c0.4,0.3,0.8,0.6,1,1C1320.4,482.7,1324.2,497.4,1322.7,512z M1126.9,414.7c-0.3,0-0.7,0-1.1,0
		c-0.1,0-0.2,0-0.3,0c-1.3,0.1-2.5,0.1-3.8,0.2c4.4-0.2,8.9-0.4,13.3-0.6C1132.3,414.4,1129.6,414.6,1126.9,414.7z M1121.7,414.9
		c-3.1,0.2-6.1,0.3-9.2,0.5c1.7-0.1,3.4-0.2,5.2-0.3C1119,415.1,1120.4,415,1121.7,414.9z M1110.9,415.5c-2.3,0.1-4.7,0.3-7,0.4
		c-1,0.1-2,0.1-3,0.2c3.9-0.2,7.8-0.5,11.6-0.7c-0.3,0-0.7,0-1,0.1C1111.3,415.5,1111.2,415.5,1110.9,415.5z M1143.1,414
		c1,0,2-0.1,3-0.1c-0.6,0-1.2,0-1.8,0.1C1143.9,414,1143.5,414,1143.1,414z"/>
	<path class="st1" d="M537.3,716.7l-0.9-92.8c0-2.8-2.9-5.7-5.5-4.7l-7.4,3c-8.6,3.5-14.4,12.4-15.4,21.5
		c-3.2,29.4,4.8,64.7,4.8,64.7C369.4,803.1,346,835.7,346,835.7c91.9-60.5,134.8-79.5,148.4-84.7c4.4-1.8,9.4-0.9,12.9,2.2
		c4,3.7,3.7,8.3,2.5,11.8c-1.1,3-3.2,5.5-6.1,7C360.1,847.4,302,895.3,302,895.3c106-61.3,195.7-79,195.3-75.7s-22,19.7-22,19.7
		C536,821,576,844.7,576,844.7C533.3,739.3,537.3,716.7,537.3,716.7z"/>
	<path class="st1" d="M635.5,572c0,0,333.7-96.3,519.2-76.8c0,0,36.2,0.8,29.5,25.5s-65.3,154.7-82,219.3c0,0,99-196.3,116-242.3
		c0,0,18.7-37.7-24-37S936.2,448.7,635.5,572z"/>
	<path class="st1" d="M786.3,614.5c-2.5-0.2-5.1,0.1-7.5,0.8l-48.4,14.4c-5.1,1.5-8.7,6.3-8.7,11.6v13.5c0,8.4,6.8,15.2,15.2,15.2
		c1.2,0,2.3-0.1,3.5-0.4l51-11.9c4.3-1,7.4-4.9,7.4-9.4v-20.6C798.7,620.3,793.8,615.2,786.3,614.5z M793,644.7
		c0,3.5-2.4,6.6-5.8,7.5l-27.7,7.2c-0.7,0.2-1.5,0.3-2.3,0.3c-4.9,0-8.9-4-8.9-8.9v-12c0-5,3.4-9.3,8.2-10.4l24.2-6
		c0.8-0.2,1.6-0.3,2.4-0.3c5.5,0,9.9,4.4,9.9,9.9V644.7z"/>
	<path class="st1" d="M899.4,585.1c-2.9-0.2-5.8,0.1-8.6,0.9l-55.3,15.9c-5.8,1.6-9.8,6.8-9.9,12.8v14.9c0,10.8,10.4,18.7,21.3,16.3
		l58.2-13.1c4.9-1,8.4-5.3,8.5-10.3v-22.7C913.7,591.4,908,585.9,899.4,585.1z M906,618.8c0,4-2.8,7.4-6.6,8.4l-31.8,8.1
		c-0.8,0.2-1.6,0.3-2.5,0.3c-5.6,0.1-10.3-4.4-10.3-10v-13.5c0-5.6,3.9-10.5,9.4-11.7l27.8-6.7c0.8-0.2,1.7-0.3,2.6-0.3
		c6.3-0.1,11.4,4.9,11.5,11.1V618.8z"/>
	<path class="st1" d="M1023.3,549.7c-3.4-0.3-6.7,0.1-9.9,1l-63.6,18.4c-6.7,1.8-11.3,7.9-11.4,14.8V601c0,12.4,12,21.6,24.5,18.8
		l67.1-15.1c5.6-1.2,9.7-6.1,9.8-11.9v-26.2C1039.7,557,1033.2,550.7,1023.3,549.7z M1030,588.9c0,4.5-3.1,8.4-7.5,9.5l-36,9.2
		c-0.9,0.2-1.8,0.4-2.8,0.4c-6.4,0.1-11.6-5-11.7-11.3v-15.3c0-6.3,4.4-11.8,10.6-13.3l31.4-7.6c1-0.3,2-0.4,3-0.4
		c7.1-0.1,12.9,5.5,13,12.6V588.9z"/>
</g>
</svg>
